<?xml version="1.0" encoding="utf-8"?>
<!-- Generator: Adobe Illustrator 15.0.0, SVG Export Plug-In  -->
<!DOCTYPE svg PUBLIC "-//W3C//DTD SVG 1.1//EN" "http://www.w3.org/Graphics/SVG/1.1/DTD/svg11.dtd" [
	<!ENTITY ns_flows "http://ns.adobe.com/Flows/1.0/">
]>
<svg version="1.1"
	 xmlns="http://www.w3.org/2000/svg" xmlns:xlink="http://www.w3.org/1999/xlink" xmlns:a="http://ns.adobe.com/AdobeSVGViewerExtensions/3.0/"
	 x="0px" y="0px" viewBox="0.252 -12.551 680 500"
	 overflow="visible" enable-background="new 0.252 -12.551 680 500" xml:space="preserve">
<defs>
</defs>
<path fill-rule="evenodd" clip-rule="evenodd" fill="#FFFFFF" d="M347.694,456.232c0.529,0,0.983,0.188,1.36,0.562
	c0.375,0.375,0.561,0.828,0.561,1.357c0,0.536-0.186,0.993-0.561,1.37c-0.373,0.375-0.827,0.564-1.36,0.564
	c-0.535,0-0.989-0.189-1.363-0.564c-0.372-0.377-0.555-0.834-0.555-1.37c0-0.529,0.185-0.982,0.559-1.357
	C346.711,456.421,347.163,456.232,347.694,456.232L347.694,456.232z M349.935,458.152c0-0.617-0.219-1.141-0.654-1.575
	c-0.436-0.433-0.964-0.649-1.581-0.649c-0.615,0-1.139,0.217-1.572,0.649c-0.436,0.438-0.655,0.962-0.655,1.575
	c0,0.619,0.217,1.148,0.649,1.584c0.434,0.436,0.958,0.654,1.578,0.654c0.617,0,1.146-0.219,1.581-0.654
	C349.716,459.298,349.935,458.771,349.935,458.152L349.935,458.152z M348.292,457.666c0,0.188-0.087,0.316-0.256,0.383
	c-0.09,0.034-0.229,0.053-0.414,0.053h-0.394v-0.883h0.372c0.243,0,0.419,0.033,0.525,0.092
	C348.238,457.371,348.292,457.49,348.292,457.666L348.292,457.666z M346.798,456.921v2.447h0.431v-0.962h0.342
	c0.229,0,0.392,0.024,0.483,0.079c0.151,0.091,0.229,0.277,0.229,0.56v0.195l0.009,0.079c0.002,0.009,0.005,0.016,0.007,0.026
	c0.003,0.008,0.004,0.017,0.005,0.022h0.406l-0.018-0.03c-0.009-0.019-0.016-0.062-0.021-0.128
	c-0.002-0.063-0.005-0.124-0.005-0.181v-0.182c0-0.121-0.044-0.249-0.133-0.375c-0.088-0.131-0.227-0.21-0.418-0.243
	c0.151-0.024,0.27-0.063,0.354-0.115c0.159-0.106,0.24-0.269,0.24-0.487c0-0.307-0.13-0.518-0.383-0.621
	c-0.143-0.059-0.365-0.085-0.672-0.085H346.798L346.798,456.921z"/>
<path fill-rule="evenodd" clip-rule="evenodd" fill="#FFFFFF" d="M303.562,446.359c2.237,0.881,4.447,1.828,6.624,2.837
	c-6.948,2.819-13.653,6.159-20.052,9.983c-2.163-1.139-4.359-2.214-6.588-3.219C289.933,452.242,296.625,449.026,303.562,446.359
	L303.562,446.359z"/>
<path fill-rule="evenodd" clip-rule="evenodd" fill="#FFFFFF" d="M295.294,443.438c-7.208,2.283-14.149,5.271-20.727,8.894
	c2.1,0.753,4.173,1.564,6.225,2.431c6.374-3.748,13.107-6.908,20.115-9.416C299.056,444.667,297.183,444.029,295.294,443.438
	L295.294,443.438z"/>
<path fill-rule="evenodd" clip-rule="evenodd" fill="#FFFFFF" d="M318.615,446.079c-5.664-2.742-11.546-5.05-17.592-6.891
	c-2.128,0.611-4.237,1.281-6.332,2.006c6.229,1.845,12.287,4.177,18.113,6.971C314.725,447.429,316.66,446.73,318.615,446.079
	L318.615,446.079z"/>
<path fill-rule="evenodd" clip-rule="evenodd" fill="#FFFFFF" d="M327.857,443.319c-5.802-2.527-11.789-4.643-17.92-6.322
	c-1.948,0.4-3.884,0.849-5.806,1.345c6.075,1.774,11.994,4.021,17.697,6.706C323.821,444.43,325.83,443.854,327.857,443.319
	L327.857,443.319z"/>
<path fill-rule="evenodd" clip-rule="evenodd" fill="#FFFFFF" d="M342.693,448.306c-14.542,4.897-28.163,11.887-40.489,20.624
	c3.082,1.895,6.09,3.897,9.014,6.013c11.619-9.212,24.518-16.89,38.396-22.719C347.347,450.848,345.039,449.544,342.693,448.306
	L342.693,448.306z"/>
<path fill-rule="evenodd" clip-rule="evenodd" fill="#FFFFFF" d="M332.695,443.553c-15.116,3.998-29.331,10.451-42.143,18.948
	c2.887,1.421,5.718,2.943,8.495,4.548c12.558-8.689,26.496-15.456,41.359-19.925C337.876,445.852,335.303,444.662,332.695,443.553
	L332.695,443.553z"/>
<path fill-rule="evenodd" clip-rule="evenodd" fill="#FFFFFF" d="M291.845,415.32c3.675,0,5.501,2.701,5.501,6.354
	c0,3.796-1.753,6.447-5.501,6.447s-5.501-2.651-5.501-6.447C286.343,418.021,288.167,415.32,291.845,415.32L291.845,415.32z
	 M291.845,425.638c0.973,0,1.411-0.873,1.411-3.963c0-2.825-0.291-3.873-1.411-3.873s-1.413,1.048-1.413,3.873
	C290.432,424.765,290.871,425.638,291.845,425.638L291.845,425.638z"/>
<path fill-rule="evenodd" clip-rule="evenodd" fill="#FFFFFF" d="M299.885,418.417h-1.607v-2.772h1.607v-1.364
	c0-2.995,1.484-4.089,4.087-4.089c0.779,0,1.363,0.073,1.996,0.146v3.018c-0.218-0.049-0.51-0.096-0.727-0.096
	c-1.04,0-1.415,0.404-1.415,1.146v1.239h2.142v2.772h-2.142v9.443h-3.941V418.417L299.885,418.417z"/>
<path fill-rule="evenodd" clip-rule="evenodd" fill="#FFFFFF" d="M253.914,419.048c0-0.729-0.341-1.215-1.023-1.215
	c-0.945,0-1.248,0.895-1.292,1.607l-3.43-0.707c0.439-2.408,2.628-3.383,4.869-3.383c2.359,0,4.817,1.027,4.817,3.724v6.815
	c0,1.389,0.222,1.8,0.368,1.971h-4.064c-0.076-0.341-0.1-0.917-0.125-1.12c-0.673,0.712-1.836,1.352-2.999,1.352
	c-1.966,0-3.464-1.327-3.403-3.574c0.085-3.176,3.677-4.115,6.283-4.42V419.048L253.914,419.048z M253.914,421.993
	c-1.378,0.134-2.411,0.655-2.411,2.218c0,0.849,0.438,1.293,1.145,1.293c0.448,0,0.929-0.316,1.267-0.761V421.993L253.914,421.993z"
	/>
<path fill-rule="evenodd" clip-rule="evenodd" fill="#FFFFFF" d="M264.103,419.127v8.733h-3.945v-12.216h3.856l0.022,1.247h0.05
	c0.813-0.828,1.897-1.541,3.437-1.541c1.726,0,2.712,1.167,2.712,2.848v9.662h-3.942v-8.412c0-0.694-0.25-1.08-0.908-1.08
	C264.94,418.368,264.459,418.658,264.103,419.127L264.103,419.127z"/>
<polygon fill-rule="evenodd" clip-rule="evenodd" fill="#FFFFFF" points="272.684,410.532 276.626,410.532 276.626,419.333 
	276.675,419.333 279.574,415.645 283.496,415.645 280.199,419.403 283.513,427.86 279.424,427.86 277.505,422.527 277.455,422.527 
	276.626,423.482 276.626,427.86 272.684,427.86 272.684,410.532 "/>
<path fill-rule="evenodd" clip-rule="evenodd" fill="#FFFFFF" d="M243.427,418.846c1.876,0.622,3.239,2.159,3.239,4.375
	c0,2.969-2.382,4.64-5.67,4.64h-6.676v-17.328h6.847c3.073,0,5.087,1.839,5.087,4.231c0,2.268-1.571,3.459-2.828,3.948V418.846
	L243.427,418.846z M238.576,424.648h1.606c0.946,0,2.21-0.414,2.21-2.192c0-1.291-0.801-2.14-2.21-2.14h-1.606V424.648
	L238.576,424.648z M238.576,417.395h1.432c1.583,0,2.213-0.853,2.213-1.875c0-1.654-1.115-1.922-2.113-1.922h-1.533V417.395
	L238.576,417.395z"/>
<path fill-rule="evenodd" clip-rule="evenodd" fill="#FFFFFF" d="M385.875,419.048c0-0.729-0.341-1.215-1.021-1.215
	c-0.946,0-1.247,0.895-1.291,1.607l-3.43-0.707c0.437-2.408,2.626-3.383,4.866-3.383c2.36,0,4.817,1.027,4.817,3.724v6.815
	c0,1.389,0.22,1.8,0.367,1.971h-4.066c-0.07-0.341-0.098-0.917-0.119-1.12c-0.677,0.712-1.839,1.352-3,1.352
	c-1.968,0-3.466-1.327-3.404-3.574c0.085-3.176,3.677-4.115,6.28-4.42V419.048L385.875,419.048z M385.875,421.993
	c-1.379,0.134-2.409,0.655-2.409,2.218c0,0.849,0.438,1.293,1.143,1.293c0.45,0,0.932-0.316,1.267-0.761V421.993L385.875,421.993z"
	/>
<path fill-rule="evenodd" clip-rule="evenodd" fill="#FFFFFF" d="M345.349,422.598c-0.055,1.089,0.23,2.896,1.822,2.896
	c0.948,0,1.751-0.696,1.951-1.681l2.652,0.975c-0.17,0.558-1.388,3.334-4.893,3.334c-3.772,0-5.478-3.042-5.478-6.426
	c0-3.456,1.803-6.376,5.43-6.376c3.796,0,5.113,3.261,5.113,6.451v0.826H345.349L345.349,422.598z M348.294,420.262
	c0.034-1.135-0.121-2.46-1.485-2.46c-1.12,0-1.521,1.307-1.46,2.46H348.294L348.294,420.262z"/>
<polygon fill-rule="evenodd" clip-rule="evenodd" fill="#FFFFFF" points="362.578,415.645 366.519,415.645 366.519,427.86 
	362.578,427.86 362.578,415.645 "/>
<polygon fill-rule="evenodd" clip-rule="evenodd" fill="#FFFFFF" points="362.578,410.532 366.519,410.532 366.519,414.036 
	362.578,414.036 362.578,410.532 "/>
<path fill-rule="evenodd" clip-rule="evenodd" fill="#FFFFFF" d="M375.267,420.164c0-0.484-0.024-1.071-0.195-1.534
	c-0.193-0.484-0.509-0.828-1.144-0.828c-1.313,0-1.46,1.607-1.46,4.043c0,2.75,0.438,3.649,1.46,3.649
	c1.387,0,1.509-1.415,1.509-2.338l3.066,0.436c-0.292,2.976-1.995,4.53-4.866,4.53c-3.553,0-5.402-3.113-5.402-6.131
	c0-3.334,1.85-6.671,5.57-6.671c4.189,0,4.822,3.627,4.822,4.844H375.267L375.267,420.164z"/>
<path fill-rule="evenodd" clip-rule="evenodd" fill="#FFFFFF" d="M312.826,410.532h5.741l3.7,17.328h-4.256l-0.683-3.503h-4.016
	l-0.755,3.503h-3.797L312.826,410.532L312.826,410.532z M313.92,421.291h2.8l-1.246-7.061h-0.089L313.92,421.291L313.92,421.291z"/>
<path fill-rule="evenodd" clip-rule="evenodd" fill="#FFFFFF" d="M353.567,415.645h3.813l0.043,1.652h0.062
	c0.807-1.288,2.276-1.946,3.796-1.946v3.992c-0.444-0.173-0.926-0.341-1.605-0.341c-1.007,0-1.698,0.397-2.166,0.949v7.909h-3.942
	V415.645L353.567,415.645z"/>
<path fill-rule="evenodd" clip-rule="evenodd" fill="#FFFFFF" d="M333.557,419.147v8.713h-3.868v-8.372
	c0-0.657-0.197-1.096-0.929-1.096c-0.414,0-1.002,0.305-1.337,0.755v8.713h-3.866v-12.216h3.849l0.018,1.244h0.049
	c0.826-0.779,2.061-1.538,3.531-1.538c1.201,0,1.997,0.694,2.371,1.638h0.049c0.69-0.747,1.869-1.638,3.517-1.638
	c1.643,0,2.751,1.082,2.751,2.771v9.738h-3.869v-8.372c0-0.657-0.197-1.096-0.919-1.096
	C334.379,418.393,333.816,418.807,333.557,419.147L333.557,419.147z"/>
<text transform="matrix(1 0 0 1 266.3726 404.2656)" fill="#FFFFFF" font-family="'AvenirNextLTPro-Regular'" font-size="13.7161">Sponsored by</text>
<path fill="#FFFFFF" d="M133.138,208.561h-26.279l71.479-186.444h25.329L133.138,208.561z"/>
<path fill="#FFFFFF" d="M294.794,174.232h-31.467l-5.865-16.084h-43.514l-5.864,16.084H176.62l43.854-118.175h30.793
	L294.794,174.232z M250.766,134.061l-15.4-49.88c-1.833,7.031-3.679,13.894-5.689,20.753c-2.849,9.709-5.858,19.412-8.874,29.127
	H250.766z M355.552,56.057c3.351,0,6.693,0,10.045,0.168c5.362,0.335,24.106,1.506,33.313,18.412
	c1.676,3.188,4.678,10.046,4.686,19.756c0,13.222-5.187,20.253-9.201,24.105c-1.676,1.67-3.698,3.18-5.53,4.354
	c-2.176,1.164-4.683,2.334-9.536,4.18l27.276,47.201h-32.473l-23.601-42.18h-18.413v42.18h-29.792V56.057H355.552z M331.953,110.119
	l24.438,0.004c1.169,0,4.518,0,7.872-1.172c9.539-3.176,9.868-12.216,9.868-15.23c0-15.393-11.887-15.393-17.075-15.734h-25.104
	V110.119z M497.834,56.057v23.271h-30.631v94.905h-29.797V79.334l-30.799-0.007V56.057H497.834z M581.358,92.335
	c-6.521-6.104-11.045-9.636-19.919-12.363c-1.502-0.319-6.023-1.61-11.05-1.61c-12.049,0-17.572,6.745-17.563,12.042
	c-0.009,3.053,1.664,5.135,2.504,5.94c4.015,4.171,10.55,4.016,21.592,5.615c6.696,0.965,13.225,2.252,19.747,3.699
	c4.19,0.801,19.424,3.688,25.445,17.488c0.843,2.094,2.349,6.428,2.349,12.199c0,3.215-0.338,9.953-4.689,17.662
	c-10.209,17.814-31.474,20.225-37.16,20.871c-3.85,0.486-7.872,0.799-11.88,0.799c-23.441,0-36.655-7.539-44.524-13.648
	c-3.19-2.568-4.694-4.168-9.369-9.469l22.421-13.482c0.499,0.477,2.851,3.051,5.183,4.814c7.708,6.102,19.086,9.471,28.966,9.473
	c1.332,0,5.354-0.164,9.204-1.119c0.835-0.324,12.559-3.379,12.559-12.041c0-10.434-15.737-10.92-26.281-12.205
	c-5.521-0.801-11.222-1.602-16.739-2.885c-8.538-2.094-16.403-5.133-22.268-11.875c-1.169-1.283-3.51-4.172-5.015-8.354
	c-0.511-1.602-1.508-5.293-1.508-9.95c0-0.959,0.169-4.651,0.667-7.867c1.337-7.223,4.518-12.995,10.213-18.139
	c5.86-5.294,17.407-11.875,36.825-11.875c7.199,0.001,22.934,0.804,38.995,11.239c4.019,2.568,6.366,4.491,13.062,10.115
	L581.358,92.335z M64.29,76.776c-3.572-3.482-6.045-5.494-10.894-7.051c-0.827-0.183-3.3-0.916-6.041-0.912
	c-6.603-0.004-9.625,3.844-9.625,6.864c0.01,1.739,0.912,2.929,1.376,3.387c2.193,2.386,5.772,2.291,11.814,3.211
	c3.663,0.544,7.233,1.279,10.81,2.101c2.289,0.456,10.622,2.108,13.921,9.988c0.458,1.187,1.279,3.66,1.279,6.957
	c0,1.83-0.175,5.68-2.56,10.078c-5.587,10.172-17.226,11.539-20.333,11.902c-2.108,0.275-4.31,0.465-6.503,0.465
	c-12.825,0-20.061-4.307-24.362-7.785c-1.744-1.459-2.571-2.383-5.133-5.408l12.276-7.688c0.271,0.266,1.549,1.74,2.834,2.744
	c4.216,3.479,10.439,5.4,15.844,5.4c0.741,0,2.935-0.094,5.043-0.637c0.456-0.184,6.871-1.918,6.868-6.869
	c0.002-5.953-8.601-6.225-14.376-6.964c-3.028-0.459-6.136-0.916-9.171-1.646c-4.662-1.189-8.967-2.936-12.177-6.776
	c-0.636-0.734-1.915-2.383-2.747-4.771c-0.271-0.907-0.823-3.017-0.823-5.671c0-0.555,0.085-2.655,0.367-4.487
	c0.734-4.123,2.467-7.423,5.584-10.352c3.208-3.027,9.527-6.779,20.149-6.779c3.935,0,12.557,0.46,21.345,6.414
	c2.195,1.464,3.493,2.561,7.142,5.771L64.29,76.776z M135.338,70.914H100.19v12.422h32.354v14.937H100.19l0.004,25.574H83.288
	v-67.78h52.05V70.914z"/>
<path fill="#FFFFFF" d="M180.538,210.125c-3.34,0-4.754-3.428-4.754-7.762c0-4.355,1.455-7.805,4.795-7.805
	c2.172,0,3.75,1.207,4.365,3.816l-2.398,0.818c-0.369-1.422-1.024-1.939-2.008-1.939c-1.537,0-2.131,1.854-2.131,5.066
	s0.635,5.109,2.172,5.109c1.558,0,2.029-0.818,2.029-3.061h-2.049v-2.523h4.529v2.588
	C185.087,208.055,183.53,210.125,180.538,210.125z"/>
<path fill="#FFFFFF" d="M198.462,210.125c-3.054,0-4.263-2.479-4.263-6.23v-9.1h2.562v9.1c0,2.609,0.553,3.557,1.722,3.557
	c1.188,0,1.68-0.947,1.68-3.557v-9.1h2.562v9.057C202.725,207.775,201.618,210.125,198.462,210.125z"/>
<path fill="#FFFFFF" d="M212.37,209.889v-15.094h2.562v15.094H212.37z"/>
<path fill="#FFFFFF" d="M227.837,209.889h-3.176v-15.094h3.238c3.443,0,5.472,2.221,5.472,7.525S231.198,209.889,227.837,209.889z
	 M227.898,197.426h-0.676v9.832h0.676c2.295,0,2.849-2.113,2.849-4.895S230.194,197.426,227.898,197.426z"/>
<path fill="#FFFFFF" d="M242.462,209.889v-15.094h7.357v2.588h-4.795v3.191h3.217v2.543h-3.217v4.184h4.979v2.588H242.462z"/>
<path fill="#FFFFFF" d="M275.547,197.383v12.506h-2.562v-12.506h-2.972v-2.588h8.504v2.588H275.547z"/>
<path fill="#FFFFFF" d="M290.891,210.125c-3.34,0-4.754-3.428-4.754-7.762c0-4.355,1.455-7.805,4.795-7.805
	c3.32,0,4.734,3.428,4.734,7.762C295.665,206.676,294.21,210.125,290.891,210.125z M290.891,197.254
	c-1.537,0-2.131,1.854-2.131,5.066s0.635,5.109,2.172,5.109c1.517,0,2.111-1.854,2.111-5.066S292.407,197.254,290.891,197.254z"/>
<path fill="#FFFFFF" d="M319.876,210.125c-1.946,0-3.299-1.078-4.282-2.371l1.741-1.963c0.861,1.164,1.783,1.725,2.644,1.725
	c1.065,0,1.599-0.625,1.599-1.639c0-0.861-0.513-1.551-2.192-2.457c-2.132-1.164-3.423-2.307-3.423-4.809
	c0-2.264,1.599-4.053,4.017-4.053c1.783,0,2.89,0.754,3.914,2.156l-1.7,1.789c-0.841-0.992-1.291-1.336-2.275-1.336
	c-0.819,0-1.353,0.561-1.353,1.314c0,0.906,0.492,1.467,2.05,2.35c2.479,1.402,3.565,2.438,3.565,4.98
	C324.18,208.314,322.54,210.125,319.876,210.125z"/>
<path fill="#FFFFFF" d="M339.297,209.889l-0.676-3.148h-3.218l-0.676,3.148h-2.623l3.668-15.094h2.5l3.668,15.094H339.297z
	 M337.678,202.428c-0.246-1.164-0.573-2.91-0.676-3.664c-0.103,0.775-0.39,2.393-0.656,3.621l-0.389,1.832h2.11L337.678,202.428z"/>
<path fill="#FFFFFF" d="M356.831,209.889l-2.644-6.727c-0.368-0.949-0.819-2.178-1.086-3.062c0.021,0.928,0.041,2.48,0.041,3.428
	v6.361h-2.336v-15.094h2.582l2.521,6.619c0.349,0.906,0.86,2.309,1.127,3.148c-0.021-0.928-0.082-2.566-0.082-3.514v-6.254h2.337
	v15.094H356.831z"/>
<path fill="#FFFFFF" d="M383.133,197.404v3.342h3.36v2.609h-3.36v6.533h-2.562v-15.094h7.562v2.609H383.133z"/>
<path fill="#FFFFFF" d="M402.677,209.889l-2.234-5.736h-0.84v5.736h-2.562v-15.094h3.812c2.787,0,4.57,1.574,4.57,4.701
	c0,2.113-1.025,3.428-2.419,4.117l2.46,6.275H402.677z M400.729,197.426h-1.127v4.205h1.271c1.312,0,1.988-0.711,1.988-2.092
	C402.861,198.182,402.267,197.426,400.729,197.426z"/>
<path fill="#FFFFFF" d="M420.662,209.889l-0.676-3.148h-3.218l-0.676,3.148h-2.623l3.668-15.094h2.5l3.668,15.094H420.662z
	 M419.043,202.428c-0.246-1.164-0.573-2.91-0.676-3.664c-0.103,0.775-0.39,2.393-0.656,3.621l-0.389,1.832h2.11L419.043,202.428z"/>
<path fill="#FFFFFF" d="M438.177,209.889l-2.644-6.727c-0.368-0.949-0.819-2.178-1.086-3.062c0.021,0.928,0.041,2.48,0.041,3.428
	v6.361h-2.336v-15.094h2.582l2.521,6.619c0.349,0.906,0.86,2.309,1.127,3.148c-0.021-0.928-0.082-2.566-0.082-3.514v-6.254h2.337
	v15.094H438.177z"/>
<path fill="#FFFFFF" d="M454.4,210.125c-3.177,0-4.652-3.428-4.652-7.762c0-4.355,1.517-7.805,4.693-7.805
	c2.438,0,3.504,1.639,4.058,3.816l-2.397,0.818c-0.369-1.379-0.759-1.939-1.701-1.939c-1.373,0-2.029,1.854-2.029,5.066
	s0.677,5.109,2.07,5.109c0.881,0,1.332-0.518,1.864-2.156l2.214,0.992C457.843,208.746,456.593,210.125,454.4,210.125z"/>
<path fill="#FFFFFF" d="M467.571,209.889v-15.094h2.562v15.094H467.571z"/>
<path fill="#FFFFFF" d="M483.304,210.125c-1.946,0-3.299-1.078-4.282-2.371l1.741-1.963c0.861,1.164,1.783,1.725,2.644,1.725
	c1.065,0,1.599-0.625,1.599-1.639c0-0.861-0.513-1.551-2.192-2.457c-2.132-1.164-3.423-2.307-3.423-4.809
	c0-2.264,1.599-4.053,4.017-4.053c1.783,0,2.89,0.754,3.914,2.156l-1.7,1.789c-0.841-0.992-1.291-1.336-2.275-1.336
	c-0.819,0-1.353,0.561-1.353,1.314c0,0.906,0.492,1.467,2.05,2.35c2.479,1.402,3.565,2.438,3.565,4.98
	C487.607,208.314,485.968,210.125,483.304,210.125z"/>
<path fill="#FFFFFF" d="M500.553,210.125c-3.177,0-4.652-3.428-4.652-7.762c0-4.355,1.517-7.805,4.693-7.805
	c2.438,0,3.504,1.639,4.058,3.816l-2.397,0.818c-0.369-1.379-0.759-1.939-1.701-1.939c-1.373,0-2.029,1.854-2.029,5.066
	s0.677,5.109,2.07,5.109c0.881,0,1.332-0.518,1.864-2.156l2.214,0.992C503.995,208.746,502.745,210.125,500.553,210.125z"/>
<path fill="#FFFFFF" d="M517.515,210.125c-3.341,0-4.755-3.428-4.755-7.762c0-4.355,1.455-7.805,4.796-7.805
	c3.319,0,4.733,3.428,4.733,7.762C522.289,206.676,520.834,210.125,517.515,210.125z M517.515,197.254
	c-1.537,0-2.132,1.854-2.132,5.066s0.636,5.109,2.173,5.109c1.517,0,2.11-1.854,2.11-5.066S519.031,197.254,517.515,197.254z"/>
<path fill="#FFFFFF" d="M549.492,209.889l-0.676-3.148h-3.218l-0.676,3.148H542.3l3.668-15.094h2.5l3.668,15.094H549.492z
	 M547.873,202.428c-0.246-1.164-0.573-2.91-0.676-3.664c-0.103,0.775-0.39,2.393-0.656,3.621l-0.389,1.832h2.11L547.873,202.428z"/>
<path fill="#FFFFFF" d="M566.639,209.889l-2.234-5.736h-0.84v5.736h-2.562v-15.094h3.812c2.787,0,4.57,1.574,4.57,4.701
	c0,2.113-1.025,3.428-2.419,4.117l2.46,6.275H566.639z M564.691,197.426h-1.127v4.205h1.271c1.312,0,1.988-0.711,1.988-2.092
	C566.823,198.182,566.229,197.426,564.691,197.426z"/>
<path fill="#FFFFFF" d="M582.779,197.383v12.506h-2.562v-12.506h-2.971v-2.588h8.504v2.588H582.779z"/>
<path fill="#FFFFFF" d="M597.712,210.125c-1.946,0-3.299-1.078-4.282-2.371l1.741-1.963c0.861,1.164,1.783,1.725,2.644,1.725
	c1.065,0,1.599-0.625,1.599-1.639c0-0.861-0.513-1.551-2.192-2.457c-2.132-1.164-3.423-2.307-3.423-4.809
	c0-2.264,1.599-4.053,4.017-4.053c1.783,0,2.89,0.754,3.914,2.156l-1.7,1.789c-0.841-0.992-1.291-1.336-2.275-1.336
	c-0.819,0-1.353,0.561-1.353,1.314c0,0.906,0.492,1.467,2.05,2.35c2.479,1.402,3.565,2.438,3.565,4.98
	C602.016,208.314,600.376,210.125,597.712,210.125z"/>
</svg>
