<svg id="Layer_1" data-name="Layer 1" xmlns="http://www.w3.org/2000/svg" viewBox="0 0 439 140"><defs><style>.cls-1{fill:#494747;}</style></defs><title>sfartslogobig</title><path class="cls-1" d="M116,11.2c-2.3,6.2-4.8,12.6-5.5,14.3s-2.1,5.2-3,8a33.57,33.57,0,0,1-2.7,6A4.64,4.64,0,0,0,104,42a14.14,14.14,0,0,1-1.5,4.4,12.66,12.66,0,0,0-1.5,4,27.06,27.06,0,0,1-2,5.1,36.78,36.78,0,0,0-2,4.7c0,0.8-24,63.7-27,71-3.6,8.6-3.5,8.8,7.9,8.8h10l2.1-5.8c1.2-3.1,2.3-6.2,2.4-6.7s0.9-2.4,1.5-4,4.6-11.8,8.6-22.5c9.3-25.1,32.7-86.9,35.4-93.8A35.43,35.43,0,0,0,140,1c0-.6-4.2-1-9.9-1h-9.8Z" transform="translate(-1 0)"/><path class="cls-1" d="M12.3,27.9C4.1,31.8.6,41.5,5,48.7c2.5,4.1,6.1,5.9,14.6,7.3,10.3,1.7,12.6,2.8,12.2,5.9-0.7,5.6-11.3,6.7-18.6,1.9L9.4,61.2,5.2,63.7C2.9,65.1,1,66.5,1,66.9c0,1.2,5.3,5.8,9,7.7,5.3,2.8,20,2.6,25.7-.4,11.5-6,12.4-21.3,1.5-25.9a70.93,70.93,0,0,0-11.3-2.8c-4.1-.6-8.1-1.5-8.7-1.9-1.7-1-1.5-5.1.3-6.6,2.3-1.9,10.7-.7,14.5,2,3.4,2.4,4.6,2.2,10-2l2.5-2L42,33c-5.5-4.5-10.4-6.3-18-6.7C18.1,26,15.6,26.3,12.3,27.9Z" transform="translate(-1 0)"/><path class="cls-1" d="M49.8,27c-0.1.5-.2,12,0,25.5L50.1,77H62V58H73.9C86.8,58,87,57.9,87,52s-0.2-6-13.2-6H61.9l0.3-4.3,0.3-4.2,13.3-.3L89,36.9V26H69.6C57.6,26,50,26.4,49.8,27Z" transform="translate(-1 0)"/><path class="cls-1" d="M150,31.7c-1.2,3.2-4.6,12.3-7.5,20.3-9.1,24.8-15.2,41.1-18.9,50.8-2,5.2-3.6,10-3.6,10.8,0,1.2,2,1.4,11.7,1.2l11.7-.3,2-5.8,2.1-5.7,16.4,0.2,16.4,0.3,2,5.8,2.1,5.7h11.8c6.5,0,11.8-.4,11.8-0.9,0-.8-3.8-11.2-25.2-68.9L175.7,26H152.1Zm19.4,34.9c2.5,8.4,4.6,15.7,4.6,16.3S170.5,84,163.4,84c-9.7,0-10.6-.1-9.9-1.8,0.4-.9,2.8-8.8,5.3-17.5s4.9-15.1,5.3-14.5S166.8,58.3,169.4,66.6Z" transform="translate(-1 0)"/><path class="cls-1" d="M214,70.4V115h21.9l0.3-15.8,0.3-15.7h13.7l3.8,7c2,3.8,5.9,10.8,8.6,15.5l4.9,8.5,11.8,0.3c9,0.2,11.7,0,11.7-1,0-.7-2.8-6-6.1-11.8s-7.7-13.2-9.5-16.6L272,79.3l4.1-1.8c5.1-2.3,11.2-9.2,12.7-14.3,2.6-8.6.6-19.5-4.7-26.8a27.76,27.76,0,0,0-8.8-7l-5.8-2.9-27.7-.3L214,25.9V70.4Zm48.9-25.9c3.4,1.7,4.1,3.3,4.1,9C267,64,263.9,66,247.5,66H236V43h12C256.7,43,260.9,43.4,262.9,44.5Z" transform="translate(-1 0)"/><path class="cls-1" d="M292.2,34.7l0.3,8.8,11.2,0.3L315,44.1l0.2,35.2,0.3,35.2h22L337.8,79,338,43.5l11,0.3c12.7,0.4,12.3.7,11.8-10.8l-0.3-6.5-34.3-.3L291.9,26Z" transform="translate(-1 0)"/><path class="cls-1" d="M386,27.9c-7.2,2.3-9.8,3.7-13.8,7.5-4.3,4-6.2,7.6-7.2,13.9-1.2,7.5.5,14.1,4.7,18.8,6.2,6.8,14,9.4,37.3,12.4,6.4,0.8,11,3.8,11,7.1,0,4-1.8,6.4-6.3,8.5-8.2,3.7-22.9,1.3-30.9-5.1-2.5-2.1-4.5-2.9-5.6-2.5C372,89.7,360,97.2,360,98c0,1.7,10.9,10,16.2,12.5,7.9,3.6,15.8,4.8,27.8,4.2,23.1-1.1,36-11.5,36-29,0-7.8-1.6-12.2-6-16-5.6-5.1-9.6-6.3-30.5-9.6-13.6-2.2-16.5-3.7-16.5-8.3,0-10.5,19-11.8,31.6-2.2l4.6,3.5,7.9-5.2c4.3-2.8,7.9-5.5,7.9-5.9,0-.9-5.6-5.3-11.7-9.3C417.4,26.4,397.8,24.1,386,27.9Z" transform="translate(-1 0)"/></svg>