<?xml version="1.0" encoding="utf-8"?>
<!-- Generator: Adobe Illustrator 15.0.0, SVG Export Plug-In  -->
<!DOCTYPE svg PUBLIC "-//W3C//DTD SVG 1.1//EN" "http://www.w3.org/Graphics/SVG/1.1/DTD/svg11.dtd" [
	<!ENTITY ns_flows "http://ns.adobe.com/Flows/1.0/">
]>
<svg version="1.1"
	 xmlns="http://www.w3.org/2000/svg" xmlns:xlink="http://www.w3.org/1999/xlink" xmlns:a="http://ns.adobe.com/AdobeSVGViewerExtensions/3.0/"
	 x="0px" y="0px" width="440px" height="140px" viewBox="-0.047 -0.479 440 140"
	 overflow="visible" enable-background="new -0.047 -0.479 440 140" xml:space="preserve">
<defs>
</defs>
<path fill="#FFFFFF" d="M86.358,139.891H66.642L120.273,0h19.006L86.358,139.891z"/>
<path fill="#FFFFFF" d="M207.654,114.133h-23.611l-4.4-12.068h-32.652l-4.399,12.068h-23.608l32.906-88.666h23.103L207.654,114.133z
	 M174.618,83.993l-11.556-37.425c-1.375,5.274-2.757,10.423-4.267,15.571c-2.139,7.284-4.397,14.565-6.659,21.854H174.618z
	 M253.238,25.467c2.516,0,5.023,0,7.538,0.125c4.022,0.252,18.087,1.131,24.994,13.817c1.257,2.391,3.512,7.535,3.517,14.821
	c0,9.921-3.891,15.196-6.904,18.086c-1.256,1.253-2.771,2.387-4.148,3.266c-1.633,0.875-3.514,1.752-7.154,3.139l20.465,35.413
	h-24.364l-17.709-31.648h-13.813v31.648h-22.354V25.467H253.238z M235.533,66.029l18.336,0.002c0.877,0,3.391,0,5.906-0.879
	c7.16-2.384,7.405-9.167,7.405-11.427c0-11.551-8.919-11.551-12.812-11.807h-18.836V66.029z M359.998,25.467v17.458h-22.984v71.208
	h-22.355V42.929l-23.11-0.003V25.467H359.998z M422.665,52.686c-4.893-4.581-8.285-7.229-14.944-9.277
	c-1.125-0.24-4.52-1.207-8.289-1.207c-9.044,0-13.186,5.061-13.179,9.034c-0.007,2.29,1.247,3.854,1.878,4.458
	c3.012,3.129,7.914,3.012,16.201,4.213c5.021,0.724,9.922,1.69,14.814,2.776c3.146,0.601,14.576,2.767,19.093,13.121
	c0.632,1.571,1.761,4.824,1.761,9.153c0,2.412-0.252,7.469-3.519,13.252c-7.659,13.366-23.612,15.176-27.88,15.66
	c-2.891,0.364-5.906,0.598-8.914,0.598c-17.588,0-27.504-5.656-33.406-10.238c-2.395-1.927-3.523-3.127-7.031-7.103l16.824-10.118
	c0.373,0.356,2.137,2.287,3.889,3.613c5.782,4.577,14.318,7.105,21.732,7.108c1,0,4.016-0.125,6.906-0.843
	c0.625-0.24,9.423-2.533,9.423-9.033c0-7.828-11.81-8.192-19.719-9.158c-4.144-0.601-8.42-1.201-12.561-2.164
	c-6.405-1.57-12.308-3.852-16.707-8.91c-0.877-0.963-2.636-3.13-3.765-6.267c-0.379-1.202-1.129-3.973-1.129-7.466
	c0-0.719,0.125-3.489,0.5-5.902c1.003-5.42,3.389-9.75,7.662-13.609c4.396-3.973,13.062-8.912,27.632-8.912
	c5.399,0.003,17.208,0.604,29.259,8.433c3.013,1.927,4.775,3.37,9.798,7.589L422.665,52.686z M34.703,41.011
	c-2.682-2.613-4.536-4.122-8.176-5.291c-0.621-0.137-2.476-0.687-4.53-0.684c-4.956-0.003-7.224,2.883-7.224,5.15
	c0.007,1.304,0.685,2.197,1.033,2.542c1.646,1.79,4.33,1.719,8.864,2.409c2.749,0.408,5.427,0.96,8.111,1.577
	c1.717,0.341,7.969,1.583,10.447,7.493c0.342,0.893,0.958,2.747,0.958,5.22c0,1.374-0.134,4.262-1.92,7.563
	c-4.193,7.63-12.924,8.657-15.255,8.929c-1.583,0.207-3.235,0.349-4.881,0.349c-9.623,0-15.052-3.23-18.279-5.841
	C2.544,69.331,1.922,68.639,0,66.369l9.211-5.767c0.203,0.199,1.161,1.304,2.126,2.056c3.164,2.61,7.833,4.055,11.888,4.055
	c0.557,0,2.202-0.07,3.785-0.479c0.34-0.137,5.154-1.439,5.151-5.153c0.002-4.467-6.453-4.672-10.787-5.226
	c-2.272-0.344-4.602-0.688-6.88-1.236c-3.498-0.892-6.729-2.202-9.137-5.084c-0.478-0.551-1.436-1.788-2.06-3.58
	c-0.206-0.68-0.617-2.262-0.617-4.256c0-0.415,0.063-1.992,0.274-3.365c0.552-3.093,1.85-5.569,4.19-7.768
	c2.406-2.271,7.148-5.087,15.119-5.087c2.952,0,9.42,0.346,16.015,4.813c1.648,1.098,2.619,1.92,5.357,4.33L34.703,41.011z
	 M88.009,36.612H61.639v9.321h24.276v11.209H61.639l0.003,19.187H48.957V25.473h39.052V36.612z"/>
</svg>
