<?xml version="1.0" encoding="utf-8"?>
<!-- Generator: Adobe Illustrator 19.0.1, SVG Export Plug-In . SVG Version: 6.00 Build 0)  -->
<svg version="1.1" id="Layer_1" xmlns="http://www.w3.org/2000/svg" xmlns:xlink="http://www.w3.org/1999/xlink" x="0px" y="0px"
	 viewBox="-92 -65 15 200" style="enable-background:new -92 -65 15 200;" xml:space="preserve">
<metadata><?xpacket begin="﻿" id="W5M0MpCehiHzreSzNTczkc9d"?>
<x:xmpmeta xmlns:x="adobe:ns:meta/" x:xmptk="Adobe XMP Core 5.6-c067 79.157747, 2015/03/30-23:40:42        ">
   <rdf:RDF xmlns:rdf="http://www.w3.org/1999/02/22-rdf-syntax-ns#">
      <rdf:Description rdf:about=""/>
   </rdf:RDF>
</x:xmpmeta>
                                                                                                    
                                                                                                    
                                                                                                    
                                                                                                    
                                                                                                    
                                                                                                    
                                                                                                    
                                                                                                    
                                                                                                    
                                                                                                    
                                                                                                    
                                                                                                    
                                                                                                    
                                                                                                    
                                                                                                    
                                                                                                    
                                                                                                    
                                                                                                    
                                                                                                    
                                                                                                    
                           
<?xpacket end="w"?></metadata>
<style type="text/css">
	.st0{opacity:0.25;fill:#FFFFFF;enable-background:new    ;}
</style>
<g>
	<path class="st0" d="M-82.7,99.4v3.9h-3.9v-3.9H-82.7 M-80.2,96.9h-8.9v8.9h8.9V96.9L-80.2,96.9z"/>
	<circle class="st0" cx="-84.7" cy="32.2" r="3.5"/>
	<path class="st0" d="M-78.2,14.2c0,3.1-3,4.4-6.9,4.4c-3.9,0-6.9-1.4-6.9-4.5c0-3.1,3-4.4,6.9-4.4C-81.2,9.8-78.2,11.1-78.2,14.2z
		 M-89.6,14.2c0,1.4,1.6,2,4.5,2c2.9,0,4.5-0.6,4.5-2c0-1.4-1.6-2-4.5-2C-87.9,12.2-89.6,12.8-89.6,14.2z"/>
	<path class="st0" d="M-78.4,0.6l-5.1,2.1v0.8h5.1v2.4h-13.4V2.3c0-2.6,1.4-4.3,4.2-4.3c1.9,0,3,1,3.7,2.3l5.6-2.3
		C-78.4-2-78.4,0.6-78.4,0.6z M-89.5,2.4v1.1h3.7V2.3c0-1.2-0.6-1.9-1.9-1.9C-88.8,0.4-89.5,1-89.5,2.4z"/>
	<path class="st0" d="M-78.2-9.6c0,3.1-3,4.4-6.9,4.4c-3.9,0-6.9-1.4-6.9-4.5c0-2,1.1-3.5,3.4-4.1l0.7,2.2c-1.3,0.3-1.7,1-1.7,1.9
		c0,1.4,1.6,2,4.5,2c2.9,0,4.5-0.6,4.5-2c0-1.5-0.7-1.9-2.7-1.9v1.9h-2.2v-4.2h2.3C-80-13.8-78.2-12.4-78.2-9.6z"/>
	<path class="st0" d="M-78.2,131c0,1.8-1,3.1-2.1,4l-1.7-1.6c1-0.8,1.5-1.7,1.5-2.5c0-1-0.6-1.5-1.5-1.5c-0.8,0-1.4,0.5-2.2,2.1
		c-1,2-2,3.2-4.3,3.2c-2,0-3.6-1.5-3.6-3.8c0-1.7,0.7-2.7,1.9-3.7l1.6,1.6c-0.9,0.8-1.2,1.2-1.2,2.1c0,0.8,0.5,1.3,1.2,1.3
		c0.8,0,1.3-0.5,2.1-1.9c1.2-2.3,2.2-3.3,4.4-3.3C-79.8,127-78.2,128.5-78.2,131z"/>
	<path class="st0" d="M-89.5,120.9h3v-3.1h2.3v3.1h5.8v2.4h-13.4v-7.1h2.3V120.9z"/>
	<path class="st0" d="M-78.4,81.9l-2.8,0.6v3l2.8,0.6v2.5l-13.4-3.4v-2.3l13.4-3.4V81.9z M-85,83.4c-1,0.2-2.6,0.5-3.3,0.6
		c0.7,0.1,2.1,0.4,3.2,0.6l1.6,0.4v-2L-85,83.4z"/>
	<path class="st0" d="M-78.4,70.4l-5.1,2.1v0.8h5.1v2.4h-13.4v-3.6c0-2.6,1.4-4.3,4.2-4.3c1.9,0,3,1,3.7,2.3l5.6-2.3
		C-78.4,67.8-78.4,70.4-78.4,70.4z M-89.5,72.2v1.1h3.7v-1.2c0-1.2-0.6-1.9-1.9-1.9C-88.8,70.2-89.5,70.8-89.5,72.2z"/>
	<path class="st0" d="M-89.5,59.9h11.1v2.4h-11.1v2.8h-2.3v-8h2.3C-89.5,57.1-89.5,59.9-89.5,59.9z"/>
	<path class="st0" d="M-78.2,50.5c0,1.8-1,3.1-2.1,4l-1.7-1.6c1-0.8,1.5-1.7,1.5-2.5c0-1-0.6-1.5-1.5-1.5c-0.8,0-1.4,0.5-2.2,2.1
		c-1,2-2,3.2-4.3,3.2c-2,0-3.6-1.5-3.6-3.8c0-1.7,0.7-2.7,1.9-3.7l1.6,1.6c-0.9,0.8-1.2,1.2-1.2,2.1c0,0.8,0.5,1.3,1.2,1.3
		c0.8,0,1.3-0.5,2.1-1.9c1.2-2.3,2.2-3.3,4.4-3.3C-79.8,46.5-78.2,48-78.2,50.5z"/>
</g>
</svg>
